<?xml version="1.0" encoding="UTF-8" standalone="no"?>
<svg width="333px" height="200px" viewBox="0 0 333 200" version="1.1" xmlns="http://www.w3.org/2000/svg" xmlns:xlink="http://www.w3.org/1999/xlink">
    <!-- Generator: Sketch 42 (36781) - http://www.bohemiancoding.com/sketch -->
    <title>bear-logo</title>
    <desc>Created with Sketch.</desc>
    <defs></defs>
    <g id="Page-1" stroke="none" stroke-width="1" fill="none" fill-rule="evenodd">
        <g id="bear-logo" fill-rule="nonzero" fill="#494949">
            <g id="Page-1">
                <g id="Bear">
                    <g id="XMLID_2_">
                        <path d="M331.675427,167.154855 C329.127695,159.519531 318.427224,148.830078 319.446316,134.068452 C320.974955,119.306827 332.69452,85.7114024 329.637242,71.4587986 C326.579964,57.2061943 311.293576,14.9574033 272.058513,8.34012276 C232.82345,1.72284226 204.288859,12.4122954 189.002471,11.9032738 C173.716083,11.3942522 171.168351,-0.313244048 154.353324,0.19577753 C132.952381,0.19577753 128.876011,9.3581659 113.589623,13.9393601 C102.379605,17.5025111 67.2209119,17.5025111 67.2209119,17.5025111 C67.2209119,17.5025111 57.0299867,4.26795015 53.972709,9.3581659 C50.9154314,13.9393601 46.8390611,26.155878 46.8390611,26.155878 C46.8390611,26.155878 27.985849,32.7731585 26.4572102,36.3363095 C24.9285714,39.8994606 22.3808401,45.4986979 22.3808401,45.4986979 C22.3808401,45.4986979 2.50853549,50.5889138 0.470350404,55.6791295 C-1.56783468,60.2603238 9.132637,71.96782 12.6994609,75.530971 C16.2662848,79.6031438 56.5204405,80.1121652 63.1445419,85.202381 C69.7686433,89.7835752 87.6027629,93.3467262 97.7936881,95.3828124 C116.6469,98.4369419 124.79964,136.104539 129.895103,177.335287 C124.290094,181.91648 114.099169,186.497675 113.589623,199.732236 L175.244721,199.732236 C175.244721,199.732236 176.263814,191.078869 177.282907,179.880394 C178.301999,169.190941 196.645665,127.451172 196.645665,127.451172 C196.645665,127.451172 209.893868,138.140625 219.065701,138.140625 C218.046608,146.28497 222.122979,155.447359 222.122979,155.447359 C222.122979,155.447359 230.275719,165.118769 237.918913,172.24507 C223.651617,177.844308 224.161163,188.02474 224.161163,188.02474 L276.134883,188.533761 C276.134883,188.533761 281.230346,177.844308 281.230346,169.190941 C288.363994,179.371373 301.612197,182.934524 301.612197,182.934524 L293.969003,199.223214 L326.070418,199.223214 C325.560871,199.223214 334.223158,174.790179 331.675427,167.154855 Z" id="XMLID_6_"></path>
                    </g>
                </g>
            </g>
        </g>
    </g>
</svg>