<?xml version="1.0" encoding="UTF-8" standalone="no"?>
<svg width="600px" height="600px" viewBox="0 0 600 600" version="1.1" xmlns="http://www.w3.org/2000/svg" xmlns:xlink="http://www.w3.org/1999/xlink">
    <!-- Generator: Sketch 43.1 (39012) - http://www.bohemiancoding.com/sketch -->
    <title>Artboard</title>
    <desc>Created with Sketch.</desc>
    <defs></defs>
    <g id="Page-1" stroke="none" stroke-width="1" fill="none" fill-rule="evenodd">
        <g id="Artboard">
            <path d="M0,0 L601,0 L601,601 L0,601 L0,0 Z M300,599 C465.13314,599 599,465.13314 599,300 C599,134.86686 465.13314,1 300,1 C134.86686,1 1,134.86686 1,300 C1,465.13314 134.86686,599 300,599 Z" id="Combined-Shape" fill="#FFFFFF"></path>
            <path d="M427.845072,372.871431 C425.608733,373.962646 421.142314,374.099266 421.558107,378.203146 C421.979265,382.307901 421.979265,386.001043 417.788252,394.61341 C413.601711,403.234535 411.505758,408.976988 408.157061,413.901469 C404.803,418.822446 401.309446,423.474561 399.775037,429.083897 C398.240628,434.690605 393.909229,443.853835 376.733859,445.492409 C359.557594,447.132735 351.596727,445.904899 348.248031,446.316513 C344.893969,446.725499 342.662101,446.316513 342.382223,445.085174 C339.589705,445.492409 335.258307,443.032358 335.258307,443.032358 C333.027333,443.168979 327.998476,440.024073 328.138862,439.339217 C326.323681,438.383747 326.043803,436.330931 325.205958,436.880042 C324.369008,437.425649 319.200659,437.289029 319.341045,434.414736 C319.480537,431.543072 326.184189,424.565776 330.233921,423.33794 C334.280971,422.106601 338.892246,421.560993 341.540802,422.106601 C344.197404,422.652208 349.781546,423.33794 349.921932,421.285124 C350.062318,419.232309 352.017885,405.283847 351.596727,395.0259 C351.18004,384.767952 346.989922,379.430982 355.366582,363.02247 C349.361282,367.53446 323.807464,371.501719 307.189166,358.508728 C309.705383,367.94695 312.637393,371.364222 312.220706,376.564572 C311.800442,381.758791 311.660056,387.228879 313.475237,390.510406 C315.290419,393.794561 317.666249,405.55884 313.896395,406.927676 C310.121176,408.293884 308.450851,408.842995 309.284225,411.028928 C310.121176,413.218365 308.306889,419.920667 302.16478,425.802369 C296.019095,431.679692 280.378133,433.869129 272.838425,433.186901 C265.297822,432.501169 263.061483,432.362797 261.527073,433.186901 C259.992664,434.003122 257.477341,433.186901 257.757219,432.362797 C255.942037,432.362797 250.21751,432.2253 251.054461,430.724222 C249.239279,430.584974 245.048267,430.448353 246.025604,429.083897 C242.115363,428.258917 239.322846,427.031081 240.16069,425.390755 C239.463231,424.703272 236.8111,422.652208 239.322846,420.466275 C241.839957,418.280342 250.637774,414.313083 254.824315,413.079992 C259.016221,411.848653 262.223638,412.534385 266.555036,412.261143 C270.882857,411.985274 273.956147,410.890556 272.838425,408.976988 C271.723385,407.066048 257.757219,379.430982 254.824315,371.63834 C246.16599,383.399117 237.508558,394.476789 233.457932,400.770981 C229.410883,407.066048 223.961762,419.508178 215.444717,424.158541 C213.209272,426.89446 209.299031,434.278116 205.392368,438.107878 C201.477657,441.93764 189.610126,440.573183 182.767876,440.984797 C175.924732,441.392032 167.687565,439.884824 164.334397,440.160693 C160.984807,440.433935 153.721399,437.838139 153.860891,436.880042 C149.95065,437.425649 148.416241,434.414736 148.836505,433.595887 C147.017746,434.963847 144.645492,432.362797 145.06665,431.134085 C142.550433,432.2253 139.61753,431.543072 140.455374,429.902746 C138.640193,429.357138 140.034216,427.442695 142.13017,424.565776 C144.226123,421.697614 150.230528,418.413459 155.535686,418.004473 C160.843526,417.593734 169.501852,418.004473 172.29437,418.004473 C175.086888,418.004473 182.62749,414.720318 183.189034,410.619942 C183.745213,406.515186 183.745213,395.8465 185.279622,389.281694 C186.817609,382.716888 193.380875,367.264722 194.07744,363.02247 C194.774898,358.780218 199.663369,341.136863 199.52656,338.814309 C199.387068,336.487376 196.454165,330.879792 195.336442,328.965349 C194.21872,327.05003 191.14543,322.127301 190.727849,320.349478 C190.308479,318.571656 188.352912,317.204572 188.212526,318.709153 C188.076611,320.212858 179.137514,321.032583 173.969165,323.222019 C168.800816,325.409704 155.399771,326.775036 150.928881,329.785073 C146.461568,332.795111 143.247892,340.180518 130.818818,333.477339 C124.396832,329.514459 120.346206,325.819566 116.576351,326.091932 C112.806497,326.367801 101.075776,326.230305 95.6311262,326.091932 C90.1855823,325.958814 84.316198,324.04262 81.804452,321.991556 C79.2918119,319.939616 78.7302681,318.709153 76.3589081,319.119015 C73.9839714,319.529753 68.5384275,313.920417 67.5601968,311.734484 C66.5828602,309.545048 64.2070293,306.944873 63.7903424,305.577789 C63.3700787,304.212456 61.6961775,302.434634 65.0448741,300.656811 C68.3989357,298.877238 82.2247157,289.850629 84.316198,287.93531 C86.411257,286.020867 90.3214973,280.549903 90.1855823,275.21556 C90.0460905,269.880342 91.299728,266.600566 96.0513898,261.265347 C100.798581,255.931005 111.968652,241.158439 111.968652,241.158439 C110.154365,239.381493 109.452435,233.090804 114.901556,231.313857 C120.346206,229.534283 123.138723,231.996086 124.11606,234.59626 C125.094291,237.193808 126.352399,237.466174 127.470122,233.773908 C128.587844,230.079015 131.520748,227.483219 134.589567,227.618964 C137.662856,227.756461 141.296796,228.576186 142.13017,229.669153 C142.96712,230.765622 146.461568,229.398538 148.836505,228.030578 C151.208759,226.661743 159.867084,215.993933 184.862935,214.076862 C198.825525,213.258889 212.652199,210.931956 224.243428,205.87173 C235.833763,200.812381 241.975872,195.20392 260.269859,202.179465 C278.562952,209.154133 298.115048,212.028426 315.570296,208.333533 C333.027333,204.642143 366.541124,195.342293 385.948363,197.256736 C405.360073,199.172055 415.973071,198.213958 454.656105,219.821943 C463.594308,224.336561 477.973584,234.183771 489.845585,242.388902 C501.716692,250.595786 501.159619,255.11128 500.738461,262.085072 C500.318198,269.060617 496.828221,271.795661 496.131656,272.344771 C495.434198,272.890379 494.733162,275.487926 495.293812,278.907826 C495.850885,282.327726 501.716692,289.850629 503.671365,301.475661 C505.626932,313.101568 505.767318,322.947901 505.346161,327.736637 C504.929474,332.520117 503.530979,338.814309 503.671365,342.094085 C503.811751,345.374737 504.228438,350.987576 507.44122,353.995861 C510.654895,357.00152 519.313221,365.485148 524.200797,371.63834 C529.088374,377.792408 535.651641,385.864422 538.860845,393.385574 C542.073627,400.908477 540.398832,404.73824 537.18605,408.976988 C533.972374,413.218365 529.505955,424.296037 524.617484,429.083897 C519.729013,433.869129 506.183111,440.160693 496.131656,439.339217 C486.074837,438.520368 479.372078,434.690605 478.535128,431.955561 C477.697283,429.220518 477.973584,428.258917 476.860333,427.84993 C475.74261,427.442695 477.417405,421.972607 480.630187,421.285124 C483.843863,420.599393 491.659872,421.423497 492.777595,418.004473 C493.895317,414.5872 491.940644,409.932459 489.428898,409.383348 C486.912681,408.842995 465.269103,402.685424 457.589009,396.253736 C449.90802,389.830805 439.99248,382.171281 438.317685,378.615636 C436.642889,375.057364 433.846795,371.63834 434.126673,366.30137 C434.126673,366.30137 430.076046,371.771458 427.845072,372.871431 Z" id="Fill-165-Copy" fill-opacity="0.35" fill="#000000"></path>
            <path d="M426.845072,370.871431 C424.608733,371.962646 420.142314,372.099266 420.558107,376.203146 C420.979265,380.307901 420.979265,384.001043 416.788252,392.61341 C412.601711,401.234535 410.505758,406.976988 407.157061,411.901469 C403.803,416.822446 400.309446,421.474561 398.775037,427.083897 C397.240628,432.690605 392.909229,441.853835 375.733859,443.492409 C358.557594,445.132735 350.596727,443.904899 347.248031,444.316513 C343.893969,444.725499 341.662101,444.316513 341.382223,443.085174 C338.589705,443.492409 334.258307,441.032358 334.258307,441.032358 C332.027333,441.168979 326.998476,438.024073 327.138862,437.339217 C325.323681,436.383747 325.043803,434.330931 324.205958,434.880042 C323.369008,435.425649 318.200659,435.289029 318.341045,432.414736 C318.480537,429.543072 325.184189,422.565776 329.233921,421.33794 C333.280971,420.106601 337.892246,419.560993 340.540802,420.106601 C343.197404,420.652208 348.781546,421.33794 348.921932,419.285124 C349.062318,417.232309 351.017885,403.283847 350.596727,393.0259 C350.18004,382.767952 345.989922,377.430982 354.366582,361.02247 C348.361282,365.53446 322.807464,369.501719 306.189166,356.508728 C308.705383,365.94695 311.637393,369.364222 311.220706,374.564572 C310.800442,379.758791 310.660056,385.228879 312.475237,388.510406 C314.290419,391.794561 316.666249,403.55884 312.896395,404.927676 C309.121176,406.293884 307.450851,406.842995 308.284225,409.028928 C309.121176,411.218365 307.306889,417.920667 301.16478,423.802369 C295.019095,429.679692 279.378133,431.869129 271.838425,431.186901 C264.297822,430.501169 262.061483,430.362797 260.527073,431.186901 C258.992664,432.003122 256.477341,431.186901 256.757219,430.362797 C254.942037,430.362797 249.21751,430.2253 250.054461,428.724222 C248.239279,428.584974 244.048267,428.448353 245.025604,427.083897 C241.115363,426.258917 238.322846,425.031081 239.16069,423.390755 C238.463231,422.703272 235.8111,420.652208 238.322846,418.466275 C240.839957,416.280342 249.637774,412.313083 253.824315,411.079992 C258.016221,409.848653 261.223638,410.534385 265.555036,410.261143 C269.882857,409.985274 272.956147,408.890556 271.838425,406.976988 C270.723385,405.066048 256.757219,377.430982 253.824315,369.63834 C245.16599,381.399117 236.508558,392.476789 232.457932,398.770981 C228.410883,405.066048 222.961762,417.508178 214.444717,422.158541 C212.209272,424.89446 208.299031,432.278116 204.392368,436.107878 C200.477657,439.93764 188.610126,438.573183 181.767876,438.984797 C174.924732,439.392032 166.687565,437.884824 163.334397,438.160693 C159.984807,438.433935 152.721399,435.838139 152.860891,434.880042 C148.95065,435.425649 147.416241,432.414736 147.836505,431.595887 C146.017746,432.963847 143.645492,430.362797 144.06665,429.134085 C141.550433,430.2253 138.61753,429.543072 139.455374,427.902746 C137.640193,427.357138 139.034216,425.442695 141.13017,422.565776 C143.226123,419.697614 149.230528,416.413459 154.535686,416.004473 C159.843526,415.593734 168.501852,416.004473 171.29437,416.004473 C174.086888,416.004473 181.62749,412.720318 182.189034,408.619942 C182.745213,404.515186 182.745213,393.8465 184.279622,387.281694 C185.817609,380.716888 192.380875,365.264722 193.07744,361.02247 C193.774898,356.780218 198.663369,339.136863 198.52656,336.814309 C198.387068,334.487376 195.454165,328.879792 194.336442,326.965349 C193.21872,325.05003 190.14543,320.127301 189.727849,318.349478 C189.308479,316.571656 187.352912,315.204572 187.212526,316.709153 C187.076611,318.212858 178.137514,319.032583 172.969165,321.222019 C167.800816,323.409704 154.399771,324.775036 149.928881,327.785073 C145.461568,330.795111 142.247892,338.180518 129.818818,331.477339 C123.396832,327.514459 119.346206,323.819566 115.576351,324.091932 C111.806497,324.367801 100.075776,324.230305 94.6311262,324.091932 C89.1855823,323.958814 83.316198,322.04262 80.804452,319.991556 C78.2918119,317.939616 77.7302681,316.709153 75.3589081,317.119015 C72.9839714,317.529753 67.5384275,311.920417 66.5601968,309.734484 C65.5828602,307.545048 63.2070293,304.944873 62.7903424,303.577789 C62.3700787,302.212456 60.6961775,300.434634 64.0448741,298.656811 C67.3989357,296.877238 81.2247157,287.850629 83.316198,285.93531 C85.411257,284.020867 89.3214973,278.549903 89.1855823,273.21556 C89.0460905,267.880342 90.299728,264.600566 95.0513898,259.265347 C99.7985807,253.931005 110.968652,239.158439 110.968652,239.158439 C109.154365,237.381493 108.452435,231.090804 113.901556,229.313857 C119.346206,227.534283 122.138723,229.996086 123.11606,232.59626 C124.094291,235.193808 125.352399,235.466174 126.470122,231.773908 C127.587844,228.079015 130.520748,225.483219 133.589567,225.618964 C136.662856,225.756461 140.296796,226.576186 141.13017,227.669153 C141.96712,228.765622 145.461568,227.398538 147.836505,226.030578 C150.208759,224.661743 158.867084,213.993933 183.862935,212.076862 C197.825525,211.258889 211.652199,208.931956 223.243428,203.87173 C234.833763,198.812381 240.975872,193.20392 259.269859,200.179465 C277.562952,207.154133 297.115048,210.028426 314.570296,206.333533 C332.027333,202.642143 365.541124,193.342293 384.948363,195.256736 C404.360073,197.172055 414.973071,196.213958 453.656105,217.821943 C462.594308,222.336561 476.973584,232.183771 488.845585,240.388902 C500.716692,248.595786 500.159619,253.11128 499.738461,260.085072 C499.318198,267.060617 495.828221,269.795661 495.131656,270.344771 C494.434198,270.890379 493.733162,273.487926 494.293812,276.907826 C494.850885,280.327726 500.716692,287.850629 502.671365,299.475661 C504.626932,311.101568 504.767318,320.947901 504.346161,325.736637 C503.929474,330.520117 502.530979,336.814309 502.671365,340.094085 C502.811751,343.374737 503.228438,348.987576 506.44122,351.995861 C509.654895,355.00152 518.313221,363.485148 523.200797,369.63834 C528.088374,375.792408 534.651641,383.864422 537.860845,391.385574 C541.073627,398.908477 539.398832,402.73824 536.18605,406.976988 C532.972374,411.218365 528.505955,422.296037 523.617484,427.083897 C518.729013,431.869129 505.183111,438.160693 495.131656,437.339217 C485.074837,436.520368 478.372078,432.690605 477.535128,429.955561 C476.697283,427.220518 476.973584,426.258917 475.860333,425.84993 C474.74261,425.442695 476.417405,419.972607 479.630187,419.285124 C482.843863,418.599393 490.659872,419.423497 491.777595,416.004473 C492.895317,412.5872 490.940644,407.932459 488.428898,407.383348 C485.912681,406.842995 464.269103,400.685424 456.589009,394.253736 C448.90802,387.830805 438.99248,380.171281 437.317685,376.615636 C435.642889,373.057364 432.846795,369.63834 433.126673,364.30137 C433.126673,364.30137 429.076046,369.771458 426.845072,370.871431 Z" id="Fill-165" fill="#FFFFFF"></path>
        </g>
    </g>
</svg>