<?xml version="1.0" encoding="UTF-8" standalone="no"?>
<svg width="478px" height="250px" viewBox="0 0 478 250" version="1.1" xmlns="http://www.w3.org/2000/svg" xmlns:xlink="http://www.w3.org/1999/xlink">
    <!-- Generator: Sketch 43.1 (39012) - http://www.bohemiancoding.com/sketch -->
    <title>Fill 165</title>
    <desc>Created with Sketch.</desc>
    <defs></defs>
    <g id="Page-1" stroke="none" stroke-width="1" fill="none" fill-rule="evenodd">
        <path d="M371.126673,169.30137 C371.126673,169.30137 367.076046,174.771458 364.845072,175.871431 C362.608733,176.962646 358.142314,177.099266 358.558107,181.203146 C358.979265,185.307901 358.979265,189.001043 354.788252,197.61341 C350.601711,206.234535 348.505758,211.976988 345.157061,216.901469 C341.803,221.822446 338.309446,226.474561 336.775037,232.083897 C335.240628,237.690605 330.909229,246.853835 313.733859,248.492409 C296.557594,250.132735 288.596727,248.904899 285.248031,249.316513 C281.893969,249.725499 279.662101,249.316513 279.382223,248.085174 C276.589705,248.492409 272.258307,246.032358 272.258307,246.032358 C270.027333,246.168979 264.998476,243.024073 265.138862,242.339217 C263.323681,241.383747 263.043803,239.330931 262.205958,239.880042 C261.369008,240.425649 256.200659,240.289029 256.341045,237.414736 C256.480537,234.543072 263.184189,227.565776 267.233921,226.33794 C271.280971,225.106601 275.892246,224.560993 278.540802,225.106601 C281.197404,225.652208 286.781546,226.33794 286.921932,224.285124 C287.062318,222.232309 289.017885,208.283847 288.596727,198.0259 C288.18004,187.767952 283.989922,182.430982 292.366582,166.02247 C286.361282,170.53446 260.807464,174.501719 244.189166,161.508728 C246.705383,170.94695 249.637393,174.364222 249.220706,179.564572 C248.800442,184.758791 248.660056,190.228879 250.475237,193.510406 C252.290419,196.794561 254.666249,208.55884 250.896395,209.927676 C247.121176,211.293884 245.450851,211.842995 246.284225,214.028928 C247.121176,216.218365 245.306889,222.920667 239.16478,228.802369 C233.019095,234.679692 217.378133,236.869129 209.838425,236.186901 C202.297822,235.501169 200.061483,235.362797 198.527073,236.186901 C196.992664,237.003122 194.477341,236.186901 194.757219,235.362797 C192.942037,235.362797 187.21751,235.2253 188.054461,233.724222 C186.239279,233.584974 182.048267,233.448353 183.025604,232.083897 C179.115363,231.258917 176.322846,230.031081 177.16069,228.390755 C176.463231,227.703272 173.8111,225.652208 176.322846,223.466275 C178.839957,221.280342 187.637774,217.313083 191.824315,216.079992 C196.016221,214.848653 199.223638,215.534385 203.555036,215.261143 C207.882857,214.985274 210.956147,213.890556 209.838425,211.976988 C208.723385,210.066048 194.757219,182.430982 191.824315,174.63834 C183.16599,186.399117 174.508558,197.476789 170.457932,203.770981 C166.410883,210.066048 160.961762,222.508178 152.444717,227.158541 C150.209272,229.89446 146.299031,237.278116 142.392368,241.107878 C138.477657,244.93764 126.610126,243.573183 119.767876,243.984797 C112.924732,244.392032 104.687565,242.884824 101.334397,243.160693 C97.9848066,243.433935 90.7213988,240.838139 90.8608906,239.880042 C86.9506503,240.425649 85.4162409,237.414736 85.8365045,236.595887 C84.0177465,237.963847 81.6454923,235.362797 82.0666501,234.134085 C79.5504333,235.2253 76.6175295,234.543072 77.4553743,232.902746 C75.640193,232.357138 77.0342165,230.442695 79.1301696,227.565776 C81.2261228,224.697614 87.230528,221.413459 92.535686,221.004473 C97.8435265,220.593734 106.501852,221.004473 109.29437,221.004473 C112.086888,221.004473 119.62749,217.720318 120.189034,213.619942 C120.745213,209.515186 120.745213,198.8465 122.279622,192.281694 C123.817609,185.716888 130.380875,170.264722 131.07744,166.02247 C131.774898,161.780218 136.663369,144.136863 136.52656,141.814309 C136.387068,139.487376 133.454165,133.879792 132.336442,131.965349 C131.21872,130.05003 128.14543,125.127301 127.727849,123.349478 C127.308479,121.571656 125.352912,120.204572 125.212526,121.709153 C125.076611,123.212858 116.137514,124.032583 110.969165,126.222019 C105.800816,128.409704 92.3997709,129.775036 87.928881,132.785073 C83.4615678,135.795111 80.2478921,143.180518 67.8188182,136.477339 C61.3968319,132.514459 57.3462056,128.819566 53.5763512,129.091932 C49.8064969,129.367801 38.0757759,129.230305 32.6311262,129.091932 C27.1855823,128.958814 21.316198,127.04262 18.804452,124.991556 C16.2918119,122.939616 15.7302681,121.709153 13.3589081,122.119015 C10.9839714,122.529753 5.53842746,116.920417 4.56019675,114.734484 C3.58286022,112.545048 1.20702931,109.944873 0.790342374,108.577789 C0.370078722,107.212456 -1.30382246,105.434634 2.04487408,103.656811 C5.3989357,101.877238 19.2247157,92.8506292 21.316198,90.9353102 C23.411257,89.020867 27.3214973,83.5499033 27.1855823,78.2155604 C27.0460905,72.8803418 28.299728,69.600566 33.0513898,64.2653474 C37.7985807,58.9310045 48.9686521,44.1584392 48.9686521,44.1584392 C47.154365,42.3814926 46.4524353,36.0908039 51.9015559,34.3138573 C57.3462056,32.5342834 60.1387235,34.9960857 61.11606,37.5962604 C62.0942907,40.1938077 63.3523991,40.4661736 64.4701216,36.773908 C65.5878441,33.0790152 68.5207479,30.4832193 71.5895667,30.6189644 C74.6628564,30.756461 78.2967958,31.576186 79.1301696,32.6691527 C79.9671202,33.7656224 83.4615678,32.3985383 85.8365045,31.0305784 C88.2087587,29.6617428 96.8670841,18.9939328 121.862935,17.0768623 C135.825525,16.2588889 149.652199,13.9319559 161.243428,8.87173043 C172.833763,3.81238077 178.975872,-1.79607954 197.269859,5.17946487 C215.562952,12.1541335 235.115048,15.0284256 252.570296,11.3335327 C270.027333,7.64214294 303.541124,-1.65770716 322.948363,0.256736041 C342.360073,2.17205501 352.973071,1.21395764 391.656105,22.8219435 C400.594308,27.3365613 414.973584,37.1837705 426.845585,45.3889024 C438.716692,53.5957859 438.159619,58.1112795 437.738461,65.0850724 C437.318198,72.0606168 433.828221,74.7956607 433.131656,75.3447714 C432.434198,75.8903789 431.733162,78.4879263 432.293812,81.907826 C432.850885,85.3277256 438.716692,92.8506292 440.671365,104.475661 C442.626932,116.101568 442.767318,125.947901 442.346161,130.736637 C441.929474,135.520117 440.530979,141.814309 440.671365,145.094085 C440.811751,148.374737 441.228438,153.987576 444.44122,156.995861 C447.654895,160.00152 456.313221,168.485148 461.200797,174.63834 C466.088374,180.792408 472.651641,188.864422 475.860845,196.385574 C479.073627,203.908477 477.398832,207.73824 474.18605,211.976988 C470.972374,216.218365 466.505955,227.296037 461.617484,232.083897 C456.729013,236.869129 443.183111,243.160693 433.131656,242.339217 C423.074837,241.520368 416.372078,237.690605 415.535128,234.955561 C414.697283,232.220518 414.973584,231.258917 413.860333,230.84993 C412.74261,230.442695 414.417405,224.972607 417.630187,224.285124 C420.843863,223.599393 428.659872,224.423497 429.777595,221.004473 C430.895317,217.5872 428.940644,212.932459 426.428898,212.383348 C423.912681,211.842995 402.269103,205.685424 394.589009,199.253736 C386.90802,192.830805 376.99248,185.171281 375.317685,181.615636 C373.642889,178.057364 370.846795,174.63834 371.126673,169.30137" id="Fill-165" fill="#000000"></path>
    </g>
</svg>